Coordinates
version=1
nRows=23
nColumns=28
inDegrees=yes

Units are S.I. units (second, meters, Newtons, ...)
Angles are in degrees.

endheader
time	pelvis_tilt	pelvis_list	pelvis_rotation	pelvis_tx	pelvis_ty	pelvis_tz	hip_flexion_r	hip_adduction_r	hip_rotation_r	knee_angle_r	ankle_angle_r	subtalar_angle_r	mtp_angle_r	hip_flexion_l	hip_adduction_l	hip_rotation_l	knee_angle_l	socket_flexion	socket_adduction	socket_rotation	socket_tx	socket_ty	socket_tz	foot_flex	lumbar_extension	lumbar_bending	lumbar_rotation
      0.64583333	     -3.84165986	     -1.53227380	      6.94321667	     -0.05736408	      0.97637039	      0.27305356	     31.43290532	      3.92541805	      0.36203457	     -9.32491220	     11.15105584	    -25.90142412	     -0.35155161	    -17.79100702	     -1.09053182	     17.95444744	     -3.89891893	      0.00000000	      0.00000000	      0.00000000	      0.00000000	      0.00000000	      0.00000000	      9.94905961	     -7.96677523	     -0.31374460	     -2.51757720
      0.65000000	     -3.81932089	     -1.59964226	      7.05560733	     -0.05103498	      0.97530643	      0.27269863	     31.56953166	      4.06458181	      0.52441363	    -10.02561453	     10.93214383	    -25.97142030	     -0.28526299	    -18.07680733	     -1.18938763	     18.02252637	     -4.11581902	      0.00000000	      0.00000000	      0.00000000	      0.00000000	      0.00000000	      0.00000000	      9.97981557	     -7.90552581	     -0.14096815	     -2.53762333
      0.65416667	     -3.77352710	     -1.66998784	      7.14180703	     -0.04470145	      0.97428291	      0.27235276	     31.72550597	      4.21872133	      0.64565854	    -10.83219504	     10.66817716	    -26.07694255	     -0.21224687	    -18.37922345	     -1.27973908	     18.05299915	     -4.35457702	      0.00000000	      0.00000000	      0.00000000	      0.00000000	      0.00000000	      0.00000000	      9.98702019	     -7.88399617	      0.07440529	     -2.57539095
      0.65833333	     -3.72596011	     -1.74416584	      7.24169303	     -0.03838888	      0.97332676	      0.27197113	     31.84419382	      4.37361252	      0.78672185	    -11.58196938	     10.41401425	    -26.15116738	     -0.15578223	    -18.65460282	     -1.36892503	     18.10325822	     -4.64358356	      0.00000000	      0.00000000	      0.00000000	      0.00000000	      0.00000000	      0.00000000	      9.95666513	     -7.85731730	      0.30131027	     -2.60246027
      0.66250000	     -3.65162027	     -1.81589064	      7.29776326	     -0.03197962	      0.97236415	      0.27167291	     31.99931099	      4.54069338	      0.82799010	    -12.47405992	     10.05468170	    -26.27909036	     -0.07490586	    -18.97927487	     -1.45286316	     18.06150005	     -4.90363233	      0.00000000	      0.00000000	      0.00000000	      0.00000000	      0.00000000	      0.00000000	      9.93906646	     -7.83927713	      0.52099111	     -2.65638310
      0.66666667	     -3.31798018	     -1.91940942	      7.29841809	     -0.02543571	      0.97174144	      0.27132056	     31.84599434	      4.74850723	      0.62552253	    -13.16640033	      7.69799095	    -28.07512801	      5.40878216	    -19.61064677	     -1.56857668	     17.82928706	     -5.12838710	      0.00000000	      0.00000000	      0.00000000	      0.00000000	      0.00000000	      0.00000000	      9.88595273	     -8.10725724	      0.81393916	     -2.73672878
      0.67083333	     -3.27112227	     -1.99332899	      7.33969385	     -0.01900008	      0.97082629	      0.27099968	     32.03884913	      4.89917486	      0.58772881	    -14.09298667	      7.31943246	    -28.05618727	      5.44528780	    -19.87053388	     -1.63216993	     17.78897751	     -5.45835038	      0.00000000	      0.00000000	      0.00000000	      0.00000000	      0.00000000	      0.00000000	      9.81928791	     -8.06258832	      1.03278941	     -2.77363374
      0.67500000	     -3.19978333	     -2.08226880	      7.36381774	     -0.01254248	      0.96999275	      0.27069206	     32.19885917	      5.07080155	      0.53940404	    -15.01609692	      6.88701784	    -28.06368234	      5.54238232	    -20.13859274	     -1.70452088	     17.72123099	     -5.81747238	      0.00000000	      0.00000000	      0.00000000	      0.00000000	      0.00000000	      0.00000000	      9.72760540	     -8.03214068	      1.27789939	     -2.80363905
      0.67916667	     -3.01967169	     -2.17909796	      7.44065279	     -0.00604237	      0.96936059	      0.27019527	     32.24043581	      5.17783585	      0.22924376	    -15.87911165	      5.70207179	    -28.39045657	      8.77007663	    -20.50438492	     -1.80130562	     17.68219818	     -6.20082386	      0.00000000	      0.00000000	      0.00000000	      0.00000000	      0.00000000	      0.00000000	      9.60631250	     -8.12781785	      1.56227034	     -2.84445149
      0.68333333	     -2.94463099	     -2.28714577	      7.43216944	      0.00043665	      0.96864012	      0.26992577	     32.38410303	      5.36946673	      0.18439029	    -16.79206979	      5.27496931	    -28.39434092	      8.75613194	    -20.73854880	     -1.87168457	     17.57416317	     -6.62631200	      0.00000000	      0.00000000	      0.00000000	      0.00000000	      0.00000000	      0.00000000	      9.46446988	     -8.09827868	      1.83034783	     -2.86449642
      0.68750000	     -2.84788247	     -2.41184990	      7.41882102	      0.00695152	      0.96803331	      0.26964048	     32.49090158	      5.57180054	      0.11507855	    -17.68320004	      4.78114649	    -28.39665849	      8.84855267	    -20.97489910	     -1.95383058	     17.45527687	     -7.08850924	      0.00000000	      0.00000000	      0.00000000	      0.00000000	      0.00000000	      0.00000000	      9.29711930	     -8.09452775	      2.11681774	     -2.84820793
      0.69166667	     -2.73086916	     -2.54020663	      7.34070392	      0.01351282	      0.96745409	      0.26946113	     32.60915549	      5.79583569	     -0.02943856	    -18.64040279	      4.25610450	    -28.40498934	      8.96523414	    -21.22996418	     -2.01715312	     17.25927155	     -7.57088552	      0.00000000	      0.00000000	      0.00000000	      0.00000000	      0.00000000	      0.00000000	      9.11091892	     -8.10591233	      2.41226649	     -2.83948302
      0.69583333	     -2.60488176	     -2.68721543	      7.32296601	      0.01998915	      0.96704597	      0.26913593	     32.63637595	      6.00628596	     -0.08423005	    -19.44874952	      3.77356161	    -28.37921465	      9.25865848	    -21.43090320	     -2.10704723	     17.12776581	     -8.13171455	      0.00000000	      0.00000000	      0.00000000	      0.00000000	      0.00000000	      0.00000000	      8.87903719	     -8.13651240	      2.73964367	     -2.76365218
      0.70000000	     -2.28748286	     -2.84854507	      7.29611074	      0.02653097	      0.96693174	      0.26872620	     32.48156357	      6.19457836	     -0.40655007	    -20.25684885	      2.75231391	    -28.53636611	     12.39105312	    -21.84194774	     -2.22163557	     16.95297612	     -8.68534047	      0.00000000	      0.00000000	      0.00000000	      0.00000000	      0.00000000	      0.00000000	      8.62382723	     -8.38284477	      3.10377851	     -2.65512325
      0.70416667	     -2.21443366	     -3.00580389	      7.23153694	      0.03311188	      0.96656918	      0.26848577	     32.57555768	      6.41056756	     -0.51704858	    -21.11991950	      2.36685729	    -28.48065401	     12.41626295	    -21.94637865	     -2.29097143	     16.77739079	     -9.33112278	      0.00000000	      0.00000000	      0.00000000	      0.00000000	      0.00000000	      0.00000000	      8.35614983	     -8.33612621	      3.42274790	     -2.64621202
      0.70833333	     -2.13815642	     -3.15435415	      7.24195868	      0.03950582	      0.96640687	      0.26815709	     32.55444563	      6.60840538	     -0.43305308	    -21.78720785	      2.17799712	    -28.43546655	     12.43295809	    -21.97313267	     -2.36923106	     16.74984881	    -10.07456109	      0.00000000	      0.00000000	      0.00000000	      0.00000000	      0.00000000	      0.00000000	      8.04099869	     -8.32065331	      3.73214765	     -2.61498991
      0.71250000	     -1.98872454	     -3.35359566	      7.04377170	      0.04629150	      0.96617589	      0.26801582	     32.62605889	      6.87879203	     -0.76845528	    -22.77624531	      1.68960363	    -28.24799936	     12.56859499	    -22.16383107	     -2.43029645	     16.32701343	    -10.74559205	      0.00000000	      0.00000000	      0.00000000	      0.00000000	      0.00000000	      0.00000000	      7.74269857	     -8.33559866	      4.11156579	     -2.52976651
      0.71666667	     -1.89643771	     -3.50742777	      7.03275482	      0.05272604	      0.96617798	      0.26773103	     32.55162732	      7.08570338	     -0.70761442	    -23.40030493	      1.54246284	    -28.18077504	     12.61600925	    -22.15299658	     -2.49914982	     16.27246920	    -11.58081601	      0.00000000	      0.00000000	      0.00000000	      0.00000000	      0.00000000	      0.00000000	      7.38399227	     -8.32990290	      4.42013799	     -2.48093456
      0.72083333	     -1.69653077	     -3.75153163	      6.77530336	      0.05958171	      0.96609908	      0.26756336	     32.55446669	      7.38660683	     -1.11651568	    -24.38159711	      1.13009259	    -27.82134102	     12.90259859	    -22.36003490	     -2.57915055	     15.73088814	    -12.31131336	      0.00000000	      0.00000000	      0.00000000	      0.00000000	      0.00000000	      0.00000000	      7.06717398	     -8.38441257	      4.85815521	     -2.32175391
      0.72500000	     -1.31825970	     -3.91077348	      6.74267499	      0.06608941	      0.96650958	      0.26698978	     32.25394494	      7.47340536	     -1.61909302	    -25.15570608	      1.18795718	    -26.53432883	     15.09103566	    -22.63164629	     -2.64379935	     15.52159137	    -13.19733041	      0.00000000	      0.00000000	      0.00000000	      0.00000000	      0.00000000	      0.00000000	      6.65454983	     -8.72213491	      5.21405929	     -2.08927834
      0.72916667	     -1.22349516	     -4.12186542	      6.59099374	      0.07274980	      0.96657940	      0.26683362	     32.22147743	      7.73363909	     -1.78323570	    -25.89419304	      0.96074688	    -26.44982359	     15.19194049	    -22.58809054	     -2.71269266	     15.18657217	    -14.12061030	      0.00000000	      0.00000000	      0.00000000	      0.00000000	      0.00000000	      0.00000000	      6.28541948	     -8.70402071	      5.56840793	     -2.05612696
      0.73333333	     -1.04828454	     -4.36027558	      6.44185810	      0.07943547	      0.96684836	      0.26650441	     32.01447235	      7.99609451	     -1.96461037	    -26.46644099	      0.89025362	    -25.86551870	     15.82216344	    -22.60591810	     -2.80257447	     14.79282936	    -15.07544283	      0.00000000	      0.00000000	      0.00000000	      0.00000000	      0.00000000	      0.00000000	      5.88652885	     -8.75569341	      5.98605589	     -1.78960750
      0.73750000	     -0.81674812	     -4.53787016	      6.29829503	      0.08607437	      0.96720322	      0.26618651	     31.78545140	      8.17971414	     -2.23212332	    -27.14703063	      0.90690207	    -25.21458996	     16.54733609	    -22.65162063	     -2.83705869	     14.40678361	    -16.08257400	      0.00000000	      0.00000000	      0.00000000	      0.00000000	      0.00000000	      0.00000000	      5.49201588	     -8.89201978	      6.34118192	     -1.64221000
